<mxfile host="app.diagrams.net" modified="2023-06-10T19:44:10.772Z" agent="Mozilla/5.0 (Windows NT 10.0; Win64; x64) AppleWebKit/537.36 (KHTML, like Gecko) Chrome/114.0.0.0 Safari/537.36" etag="ALBEOno_S0UIxL1in0_Z" version="21.3.7" type="github">
  <diagram name="Page-1" id="c7558073-3199-34d8-9f00-42111426c3f3">
    <mxGraphModel dx="1909" dy="2167" grid="1" gridSize="10" guides="1" tooltips="1" connect="1" arrows="1" fold="1" page="1" pageScale="1" pageWidth="826" pageHeight="1169" background="none" math="0" shadow="0">
      <root>
        <mxCell id="0" />
        <mxCell id="1" parent="0" />
        <mxCell id="j6dJSgo5oTLflIwEnemM-102" value="" style="edgeStyle=orthogonalEdgeStyle;rounded=0;orthogonalLoop=1;jettySize=auto;html=1;" edge="1" parent="1" source="2" target="6">
          <mxGeometry relative="1" as="geometry" />
        </mxCell>
        <mxCell id="2" value="&lt;p style=&quot;margin: 0px; margin-top: 4px; text-align: center; text-decoration: underline;&quot;&gt;&lt;strong&gt;Process 1&lt;br&gt;&lt;/strong&gt;&lt;/p&gt;&lt;hr&gt;&lt;p style=&quot;margin-bottom:0in&quot; class=&quot;MsoNormal&quot;&gt;Dataset&lt;br/&gt;Pre-Processing&lt;/p&gt;&lt;p style=&quot;margin: 0px; margin-left: 8px;&quot;&gt;&lt;br/&gt;&lt;br/&gt;&lt;/p&gt;&lt;p style=&quot;margin-bottom:0in&quot; class=&quot;MsoNormal&quot;&gt;&lt;span style=&quot;font-family:&amp;quot;Times New Roman&amp;quot;,serif&quot;&gt;Resizing,&lt;br/&gt;Normalization, Splitting&lt;/span&gt;&lt;/p&gt;" style="verticalAlign=middle;align=center;overflow=fill;fontSize=12;fontFamily=Helvetica;html=1;rounded=1;fontStyle=1;strokeWidth=3;fillColor=#E6FFCC" parent="1" vertex="1">
          <mxGeometry x="490" y="32" width="205" height="90" as="geometry" />
        </mxCell>
        <mxCell id="j6dJSgo5oTLflIwEnemM-107" value="" style="edgeStyle=orthogonalEdgeStyle;rounded=0;orthogonalLoop=1;jettySize=auto;html=1;entryX=0.5;entryY=0;entryDx=0;entryDy=0;" edge="1" parent="1" source="6" target="7">
          <mxGeometry relative="1" as="geometry">
            <mxPoint x="640" y="155.99999999999977" as="targetPoint" />
          </mxGeometry>
        </mxCell>
        <mxCell id="6" value="&lt;p style=&quot;margin: 0px; margin-top: 4px; text-align: center; text-decoration: underline;&quot;&gt;&lt;strong&gt;Process 2&lt;br&gt;&lt;/strong&gt;&lt;/p&gt;&lt;hr&gt;&lt;p style=&quot;margin-bottom:0in&quot; class=&quot;MsoNormal&quot;&gt;Dataset&lt;br&gt;Pre-Processing&lt;/p&gt;&lt;p style=&quot;margin-bottom:0in&quot; class=&quot;MsoNormal&quot;&gt;&lt;span style=&quot;font-family:&amp;quot;Times New Roman&amp;quot;,serif&quot;&gt;Resizing, Normalization, Splitting&lt;/span&gt;&lt;/p&gt;" style="verticalAlign=middle;align=center;overflow=fill;fontSize=12;fontFamily=Helvetica;html=1;rounded=1;fontStyle=1;strokeWidth=3;fillColor=#E6FFCC" parent="1" vertex="1">
          <mxGeometry x="140" y="5" width="300" height="144" as="geometry" />
        </mxCell>
        <mxCell id="j6dJSgo5oTLflIwEnemM-109" value="" style="edgeStyle=orthogonalEdgeStyle;rounded=0;orthogonalLoop=1;jettySize=auto;html=1;" edge="1" parent="1" source="7" target="j6dJSgo5oTLflIwEnemM-108">
          <mxGeometry relative="1" as="geometry" />
        </mxCell>
        <mxCell id="7" value="&lt;p style=&quot;margin-bottom:0in&quot; class=&quot;MsoNormal&quot;&gt;Deep&lt;br&gt;Learning Methods&lt;/p&gt;&lt;p style=&quot;margin: 4px 0px 0px; text-decoration-line: underline;&quot;&gt;&lt;span style=&quot;font-family: &amp;quot;Times New Roman&amp;quot;, serif; background-color: initial;&quot;&gt;VGG19,&lt;/span&gt;&lt;br&gt;&lt;/p&gt;&lt;p style=&quot;margin-bottom:0in&quot; class=&quot;MsoNormal&quot;&gt;&lt;span style=&quot;font-family:&amp;quot;Times New Roman&amp;quot;,serif&quot;&gt;CNN, ResNeT152V2+GRU, ResNeT152V2+ Bi-GRU&lt;/span&gt;&lt;/p&gt;" style="verticalAlign=middle;align=center;overflow=fill;fontSize=12;fontFamily=Helvetica;html=1;rounded=1;fontStyle=1;strokeWidth=3;fillColor=#E6FFCC" parent="1" vertex="1">
          <mxGeometry x="108" y="190" width="310" height="96" as="geometry" />
        </mxCell>
        <mxCell id="53" value="Desired &#xa;functionality" style="text;spacingTop=-5;align=center" parent="1" vertex="1">
          <mxGeometry x="720" y="-130" width="30" height="20" as="geometry" />
        </mxCell>
        <mxCell id="62" value="Progress&#xa;reports" style="text;spacingTop=-5;align=center" parent="1" vertex="1">
          <mxGeometry x="723.0000000000001" y="44.00000000000003" width="30" height="20" as="geometry" />
        </mxCell>
        <mxCell id="j6dJSgo5oTLflIwEnemM-108" value="" style="rounded=0;whiteSpace=wrap;html=1;" vertex="1" parent="1">
          <mxGeometry x="450" y="190" width="370" height="100" as="geometry" />
        </mxCell>
        <mxCell id="j6dJSgo5oTLflIwEnemM-111" value="" style="edgeStyle=orthogonalEdgeStyle;rounded=0;orthogonalLoop=1;jettySize=auto;html=1;" edge="1" parent="1" source="j6dJSgo5oTLflIwEnemM-110" target="2">
          <mxGeometry relative="1" as="geometry" />
        </mxCell>
        <mxCell id="j6dJSgo5oTLflIwEnemM-110" value="&lt;blockquote style=&quot;margin-bottom: 0in;&quot;&gt;Dataset&lt;br&gt;Collection&amp;nbsp;&lt;br&gt;&lt;span style=&quot;font-family: &amp;quot;Times New Roman&amp;quot;, serif; background-color: initial;&quot;&gt;X-ray&lt;/span&gt;&lt;/blockquote&gt;" style="shape=parallelogram;perimeter=parallelogramPerimeter;whiteSpace=wrap;html=1;fixedSize=1;rounded=1;fillColor=#fff2cc;strokeColor=#D6B656;align=left;arcSize=30;size=29.999999999999545;" vertex="1" parent="1">
          <mxGeometry x="770" y="15.5" width="260" height="123" as="geometry" />
        </mxCell>
      </root>
    </mxGraphModel>
  </diagram>
</mxfile>
